# xmcd
#
# Track frame offsets: 
#        150
#        21420
#        41426
#        59457
#        75829
#        99009
#        120851
#        142780
#        160104
#        186170
#        205423
#
# Disc length: 2998 seconds
#
# Revision: 0
# Processed by: cddbd v1.5.2PL0 Copyright (c) Steve Scherf et al.
# Submitted via: ExactAudioCopyFreeDBPlugin 1.0
#
DISCID=7c0bb40b
DTITLE=Cam Ly - Doi cho nhung mua dong
DYEAR=1900
DGENRE=
TTITLE0=Doi cho nhung mua dong
TTITLE1=Em mai goi ten
TTITLE2=Co mot nguoi yeu em
TTITLE3=De khong con xa nhau
TTITLE4=Tham phu phu ban
TTITLE5=Giac mong phu du
TTITLE6=Tinh em sa mac
TTITLE7=Tinh mong
TTITLE8=Noi buon me toi
TTITLE9=Em se quen
TTITLE10=Tinh yeu ngay ay
EXTD=
EXTT0=
EXTT1=
EXTT2=
EXTT3=
EXTT4=
EXTT5=
EXTT6=
EXTT7=
EXTT8=
EXTT9=
EXTT10=
PLAYORDER=
